<svg id="visual" viewBox="0 0 400 400" width="400" height="400" xmlns="http://www.w3.org/2000/svg" xmlns:xlink="http://www.w3.org/1999/xlink" version="1.1"><rect x="0" y="0" width="400" height="400" fill="#ddedf3"></rect><path d="M0 308L16.7 308C33.3 308 66.7 308 100 305.2C133.3 302.3 166.7 296.7 200 293.5C233.3 290.3 266.7 289.7 300 291.7C333.3 293.7 366.7 298.3 383.3 300.7L400 303L400 401L383.3 401C366.7 401 333.3 401 300 401C266.7 401 233.3 401 200 401C166.7 401 133.3 401 100 401C66.7 401 33.3 401 16.7 401L0 401Z" fill="#df6f13" stroke-linecap="round" stroke-linejoin="miter"></path></svg>